<svg xmlns="http://www.w3.org/2000/svg" viewBox="0 0 560 320" fill="none" stroke-linecap="round" stroke-linejoin="round">
  <style>.b{fill:#0a2a57;stroke:#a3b9d8;stroke-width:2.5}.b2{fill:#0e3266;stroke:#a3b9d8;stroke-width:2}.l{stroke:#a3b9d8;stroke-width:2}.h{stroke:#e4edf8;stroke-width:2.5}.a{stroke:#ffc20e;stroke-width:2.5}.af{fill:#ffc20e}.d{stroke:#48648c;stroke-width:1.5;stroke-dasharray:5 5}</style>
  <!-- route -->
  <path class="a" stroke-dasharray="2 10" d="M70 70C170 20 330 110 470 50"/>
  <path class="b2" d="M70 84c-12-14-18-22-18-32a18 18 0 0136 0c0 10-6 18-18 32z"/>
  <circle class="af" cx="70" cy="52" r="6"/>
  <path class="b2" d="M470 64c-12-14-18-22-18-32a18 18 0 0136 0c0 10-6 18-18 32z"/>
  <circle class="af" cx="470" cy="32" r="6"/>
  <!-- trailer -->
  <rect class="b" x="60" y="130" width="300" height="120" rx="3"/>
  <path class="l" d="M60 230h300"/>
  <!-- crate on trailer (open view) -->
  <rect class="b2" x="120" y="150" width="110" height="74" rx="2"/>
  <path class="l" d="M120 150l110 74M230 150L120 224"/>
  <rect class="b2" x="248" y="170" width="80" height="54" rx="2"/>
  <path class="h" d="M258 184h60"/>
  <!-- cab -->
  <path class="b" d="M370 250V150h80l44 50v50z"/>
  <path class="b2" d="M384 164h58l30 36h-88z"/>
  <path class="l" d="M360 240h10"/>
  <rect class="af" x="484" y="220" width="10" height="10" rx="1"/>
  <!-- wheels -->
  <circle class="b" cx="120" cy="262" r="22"/><circle class="l" cx="120" cy="262" r="8"/>
  <circle class="b" cx="176" cy="262" r="22"/><circle class="l" cx="176" cy="262" r="8"/>
  <circle class="b" cx="300" cy="262" r="22"/><circle class="l" cx="300" cy="262" r="8"/>
  <circle class="b" cx="444" cy="262" r="22"/><circle class="l" cx="444" cy="262" r="8"/>
  <!-- road -->
  <path class="l" d="M20 290h520"/>
  <path class="d" d="M40 306h480"/>
</svg>
