<svg xmlns="http://www.w3.org/2000/svg" viewBox="0 0 400 300" fill="none" stroke-linecap="round" stroke-linejoin="round">
  <style>.b{fill:#0b2c5c;stroke:#9bb2d2;stroke-width:2}.l{stroke:#9bb2d2;stroke-width:2}.h{stroke:#d0ddef;stroke-width:2}.a{stroke:#ffc20e;stroke-width:2}.af{fill:#ffc20e}.d{stroke:#4d6a92;stroke-width:1.5;stroke-dasharray:4 4}</style>
  <rect class="b" x="128" y="32" width="144" height="230" rx="4"/>
  <rect class="b" x="128" y="32" width="144" height="30" rx="4"/>
  <rect class="l" x="146" y="42" width="30" height="10" rx="1"/>
  <circle class="af" cx="254" cy="47" r="4"/>
  <path class="l" d="M200 62v200"/>
  <path class="h" d="M190 110v60M210 110v60"/>
  <g class="a" transform="translate(164 212)">
    <path d="M0-14V14M-12-7l24 14M-12 7l24-14"/>
  </g>
  <g class="l" transform="translate(236 212)">
    <path d="M0-14V14M-12-7l24 14M-12 7l24-14"/>
  </g>
  <path class="l" d="M140 262v10M260 262v10"/>
  <path class="d" d="M128 286h144M128 280v12M272 280v12"/>
  <path class="d" d="M300 32v230M294 32h12M294 262h12"/>
</svg>
